<?xml version="1.0" encoding="utf-8"?>
<!-- Generator: Adobe Illustrator 27.1.1, SVG Export Plug-In . SVG Version: 6.00 Build 0)  -->
<svg version="1.1" id="Layer_1" xmlns="http://www.w3.org/2000/svg" xmlns:xlink="http://www.w3.org/1999/xlink" x="0px" y="0px"
	 viewBox="0 0 185.5 54.3" style="enable-background:new 0 0 185.5 54.3;" xml:space="preserve">
<style type="text/css">
	.st0{fill:none;}
</style>
<g>
	<path d="M13.7,46.3c0,0,0,0.1-0.1,0.1l-0.2-0.1c-0.3,0-0.7,0-0.7-0.2l-0.1-0.1l-0.4,0.1c0,0-0.1,0-0.1-0.1v-0.1h0
		c-0.1,0-0.1,0-0.1-0.2v-0.2c0,0-0.5-0.9-0.8-1.7C11,43.5,11,42.8,11,42.7c-0.1-0.1-0.1-1.5-0.3-1.6c-0.1-0.5-0.1-0.8-0.3-1.4
		c0-0.4,0-0.4-0.1-0.6l0.1-0.3c0-0.2-0.1-0.4-0.1-1.4l-0.1-0.8c0-0.1,0-0.6,0-1.5c0-0.2,0-1.5-0.1-1.7c0,0,0-0.2,0-0.2
		c0,0,0-1.5-0.1-1.5c0.1,0,0.1-0.1,0.1-0.4c0-0.8,0.1-0.5,0.1-0.8c0-0.3,0-0.3,0-1l0-0.3c0-0.1-0.1-0.1-0.1-0.2l0.1-1
		c0-0.3-0.1-0.3-0.1-0.4c0-0.1,0.1-0.2,0.1-0.4v-0.4c0-0.8,0.1-2.2,0.1-2.2L10.3,24c0-0.2,0.1-0.4,0.1-0.5c0-0.1,0-0.1-0.1-0.2
		c0.1-0.1,0.1-0.1,0.1-0.6l0,0c0-0.1,0.1-0.2,0.1-0.2c0-0.1-0.1-0.2-0.1-0.3c0-0.1,0.2-0.9,0.2-1.9c0-0.1-0.1-0.1-0.1-0.2
		c0.1-0.1,0.1-0.1,0.1-0.2l0-0.1c0-0.2,0.1-1.4,0.2-1.4c0-0.6-0.1-0.4-0.1-0.9c0.1-0.1,0.1-0.1,0.1-0.3v-0.1c0-0.2,0.1-0.6,0.1-0.9
		c0-0.6,0-0.6,0.1-0.6l0.1-0.1c0-0.1-0.1-0.2-0.1-0.3c0-0.2,0-0.6,0.2-1c0-0.8,0.1-1,0.2-1.4c0-0.1-0.1-0.2-0.1-0.3
		c0,0,0.1,0,0.1-0.2c0-0.1,0.3-1,0.3-1.2v-0.2c0-0.2,0-0.3,0.3-0.3c0.5-0.1,0.5-0.4,0.7-0.4L13,9.7c0,0,0.1,0,0.2,0
		c0.4,0,0.5,0.1,0.9,0.3c0.1,0.1,0.3,0.1,0.4,0.2c0.1,0.1,0.3,0,0.6,0.3l0.1,0.2c0,0,0.3,0.3,0.3,0.4c0,0.1,0,0.2,0.2,0.3l0,0.3
		c0,0.1,0.1,0.5,0.1,0.7c0,0.6-0.1,0.7-0.1,0.9c0,0.3,0.2,0.2,0.5,0.4c0.1,0.1,0.2,0.2,0.3,0.2c0.3,0,0.3,0.3,0.3,0.5
		c0,0,0.2,0.1,0.2,0.3c0,0.1,0.3,0.1,0.3,0.8c0,0.3,0.1,0.5,0.1,0.6l0.1,1.8l-0.1,0.1c0,0.4,0.1,0.6,0.1,0.8l0,0.1
		c0,0.8,0.3,0.9,0.3,1.2c0,0.3,0.1,0.3,0.1,0.4c0,0.1-0.1,0.3-0.1,0.4c0,0,0.1,0.2,0.1,0.3l-0.1,0.4c0,0.2,0.1,0.4,0.1,0.4
		c0.1,0.1,0.1,0.2,0.2,0.4l-0.1,0.1c0,0.1,0.2,0.5,0.2,0.8l0,0.1c0,0.4,0.2,0.8,0.4,1.3c0,0.1,0.2,0.5,0.3,0.7
		c0,0.5,0.2,0.6,0.2,0.8v0.1c0,0.2,0.2,0.4,0.2,0.7c0,0.1,0.3,0.6,0.5,1c0.3,0.7,0.4,0.8,0.4,0.8c0,0.1,0.3,0.6,0.4,0.6
		c0,0,0.1,0.6,0.4,0.6c0.1,0,0.1,0.2,0.3,0.3c0.2,0.2,0.8,1.2,0.9,1.2l0.6,0.6c0.1,0,0.3,0.3,0.4,0.3c0.2,0,0.5,0.3,1.2,0.7
		c0.5-0.7,0.6-0.9,0.8-1.1c0.2-0.1,0-0.3,0.5-0.6c0-0.1,0.1-0.1,0.1-0.2v-0.2c0.1-0.1,0.4-1.1,0.7-1.3c0.1-0.1,0.2-0.2,0.2-0.2
		c0.1-0.4,0.2-0.5,0.2-0.5v-0.1c0-0.3,0.4-0.2,0.4-0.4c0-0.1-0.1-0.4-0.1-0.6c0-0.3,0.1-0.6,0.1-0.7c0-0.3,0.3-0.4,0.4-0.8
		c0-1.5,0.6-3.5,0.6-4.3c0,0,0-0.2,0-0.4c0.1-0.4,0-1,0.2-2.2v-1.8c0.1-1.1,0.2-0.9,0.2-1.2c0.1-0.3,0.1-0.3,0.2-0.5
		c-0.1-0.1-0.1-0.2-0.1-0.2c0-0.1,0.2-0.2,0.2-0.3c0-0.1,0-0.2,0-0.7l0-0.2c0-0.1-0.1-0.1-0.1-0.2l0.1-0.4l0.1-0.2c0,0,0,0,0-0.1
		c0-0.5-0.1-0.3-0.1-0.9c0,0,0-0.1,0-0.1c0-0.3,0.2-0.7,0.2-0.9l-0.1-0.1c0-0.3,0.1-0.2,0.1-0.8c0-0.3,0.1-1,0.1-1.2
		c0-0.1-0.1-0.1-0.1-0.2c0-0.2,0.6-0.6,0.6-0.8c0.1-0.2,0.2-0.2,0.5-0.3c0.2,0.1,0.1,0.3,0.2,0.3c0.1,0,0.2-0.2,0.3-0.2
		c0.1,0,0.1,0.1,0.3,0.1c0.8,0,0.6,0.4,1,0.4c0.1,0,0.1,0,0.1,0.1c0,0.3,0.1,0.3,0.4,0.4v0.5c0,0.5-0.4,0.5-0.5,1.4
		c0,0.1,0,0.3-0.1,0.4c-0.1,0.2-0.2,3.5-0.2,3.5l0,0c0,0.1,0.1,0.1,0.1,0.2l-0.1,0.5v0.4c0,2.5-0.1,2.2-0.1,2.3c0,0,0.1,0,0.1,0.1
		l0,0.1c0,0.4,0.1,0.8,0.1,1.2c-0.1,0.2-0.1,0.4-0.1,0.6c0,0.2,0.1,0.2,0.1,1.3c0.1,0,0.1,0.1,0.1,0.2c0,0.1,0,0.2-0.1,0.3
		c0,0.1,0.1,0.1,0.1,0.1c-0.1,0.3-0.2,1.6-0.2,1.8c0,0.2,0.1,0.1,0.1,0.6c0,0.1-0.1,0.4-0.1,0.6c-0.1,0.5-0.1,0.9-0.2,1.1
		c0,0,0,0.1,0.1,0.1c0,0,0,0,0,0.4c0,0.2,0,0.4,0,0.4c-0.1,0,0,0.4-0.2,0.9c-0.2,0.5,0,0.7-0.2,1.1c-0.1,0.2-0.1,0.3-0.1,0.5V31
		c0,0.6-0.3,0.3-0.3,0.9c0,0.3-0.1,0.4-0.1,0.4c-0.1,0.2-0.6,0.8-0.6,1.1v0.1l0,0.2c0,0.3-0.3,0.5-0.3,0.6v0.1c0,0-0.4,1-0.5,1
		c0,0.2-0.4,0.4-0.4,0.7c-0.1,0.1-0.3,0.6-0.5,0.6c-0.1,0-0.4,0.3-0.5,0.3c-0.1,0-0.3,0.2-1.5,0.2h-0.9c-1.4-0.3-1.5-0.5-1.7-0.5
		c0,0-0.1-0.1-0.3-0.1c-0.1,0-0.2-0.2-0.4-0.2c-0.2-0.1-0.8-0.6-1-0.6c-0.2,0-2-1.8-2.2-1.8c0,0-0.1-0.1-0.5-0.6
		c-0.2-0.1-0.3-0.3-0.3-0.4c-0.1-0.1-0.3-0.1-0.4-0.3c-0.3-0.3-0.4-0.3-1-1.1c-0.2-0.2-0.1-0.2-0.2-0.3l-0.8-1.1l0-0.1
		c-0.1-0.1,0,0.2-0.5-0.8c-0.3-0.1-0.1-0.2-0.2-0.3c0-0.1-0.3-0.4-0.3-0.6l-0.6-1.3c0,0-0.2-0.7-0.3-0.7c0,0,0,0.1,0,0.1
		c0,0.1,0,0.1,0.1,0.2c-0.3,0.3-0.1,1-0.2,1.1l-0.1,0.1l0.1,0.2c-0.1,0.1-0.2,0.1-0.2,0.1c0,0.1,0.1,0.2,0.1,0.6
		c0,0.4-0.1,0.7-0.1,0.9c0,0.7,0.1,0.5,0.1,1c0,0.2-0.1,0.1-0.1,0.9c0,0.6,0,0.7,0,1c0,0.3-0.1,0.4-0.1,0.7l0.1,0.3
		c0,0.2-0.1,0.2-0.1,0.3c0,0.1,0.1,0.1,0.1,0.4c0,0.5-0.1,0.4-0.1,0.6l0,2.8c0,0-0.3,0.5-0.3,0.7c0,0.1,0.1,0.2,0.1,0.3
		c0,0.2-0.1,0.2-0.1,0.4l0.1,0.1l0.1,0.1H14c-0.1,0-0.1,0-0.1,0.3c0,0.5,0.1,0.5,0.1,0.9c0,0.1-0.2,0.3-0.2,0.8l0.1,0.8
		c0,0.2-0.1,0-0.1,0.8c0,0.4,0.1,0.7,0.1,0.8h0c0,0.1,0.1,0.1,0.1,0.1c-0.1,0.2-0.1,0.6-0.2,0.7c0,0.1,0.3,0.1,0.3,0.2
		c-0.1,0.1-0.1,0.1-0.1,0.2c0,0.1,0,0.4,0.1,0.4l0,0.1c0,0.2-0.3,0.2-0.3,0.3c0,0,0.2,0.1,0.2,0.2l-0.1,0.1L13.7,46.3z"/>
	<path d="M49.3,8.7V8.6c0,0,0,0,0,0l0.1,0.1c0,0.1,0.1,0.1,0.1,0.1c0,0,0.1,0,0.2,0c0.1,0,1.1,0,1.5,0.1C52.1,8.9,52.3,9,52.5,9
		c0.1,0,0.1,0.1,0.1,0.1c0,0,0,0.1,0.1,0.1h0.1c0,0,0.1,0,0.1,0.1c0,0.1,0.4,0.4,0.7,0.4c0.1,0,0.1,0,0.1,0.1c0,0.1,0.1,0.1,0.3,0.3
		c0.1,0.1,0.2,0.1,0.3,0.3c0.1,0.1,0.1,0.2,0.1,0.2c0,0,0.1,0.1,0.1,0.2c0,0.1,0,0.3,0.1,0.6c0.1,0.1,0.1,0.4,0.2,0.5l-0.1,0.2
		c0,0.1,0,0.1,0.1,0.1c0,0,0,0.1,0,0.1v0.1c0,0.1,0,0.2,0.1,0.2c0.1,0,0.1,0.5,0.1,0.7v0.2c0.1,0,0.1,0,0.1,0.1v0.2l-0.1,0.2
		c0,0,0,0.1,0,0.1v0.2c0,0.1-0.1,1.1-0.3,1.4c0,0.1,0,0.2-0.1,0.3v0.1c0,0.1-0.2,0.6-0.3,0.6l0,0.3V18c0,0.1,0,0.1-0.1,0.2
		c0,0.1,0,0.1,0,0.2c0,0-0.1,0.1-0.1,0.2C54,18.8,54,19,54,19.1v0.1l0.1,0c0,0-0.1,0.1-0.1,0.1c-0.1,0-0.2,0.1-0.3,0.3
		c0,0.1,0,0.2,0,0.2c0,0-0.1,0.1-0.1,0.1c0,0.1,0,0.2,0,0.2c0,0-0.1,0.1-0.1,0.1c0,0.1,0,0.1-0.1,0.2c-0.1,0-0.1,0.1-0.1,0.2
		c0,0.1-0.1,0.3-0.1,0.4c-0.2,0.1-0.3,0.4-1.1,1.9c0,0.1,0,0.2,0,0.2v0.1c0,0.1-0.1,0.1-0.1,0.1c0,0.1-0.1,0.2-0.2,0.3
		c-0.1,0.1-0.1,0.2-0.1,0.3c-0.1,0.1-0.2,0.3-0.2,0.4c0,0.1-0.1,0.2-0.1,0.2c-0.1,0-0.2,0.1-0.3,0.4c0,0.2-0.2,0.3-0.2,0.3
		c0,0-0.1,0.2-0.1,0.3c0,0-0.1,0.2-0.3,0.4c-0.1,0.1-0.2,0.4-0.2,0.4c0,0.1,0,0.1-0.1,0.1c-0.1,0-0.1,0.2-0.1,0.2c0,0,0,0.1,0,0.1
		c0,0-0.1,0-0.1,0.2c0,0.1-0.2,0.3-0.2,0.3c-0.1,0.1-0.1,0.2-0.2,0.3c0,0.1-0.1,0.2-0.4,0.5c-0.1,0.1-0.1,0.2-0.1,0.3
		s-0.2,0.3-0.3,0.3c-0.1,0-0.1,0.1-0.1,0.1c0,0.1,0,0.1,0,0.1c-0.1,0.1-0.4,0.5-0.4,0.6c0,0.1-0.3,0.4-0.3,0.4c0,0-0.1,0.1-0.1,0.3
		c0,0.1-0.2,0.3-0.3,0.3c-0.1,0-0.1,0-0.1,0.1c0,0-0.1,0.2-0.2,0.2c-0.1,0.2-0.1,0.3-0.1,0.4l0,0.1l-0.1-0.1v0.1L46,32.1l-0.1,0.2
		c0,0.1-0.1,0.2-0.1,0.2c-0.1,0.1-0.1,0.2-0.1,0.2c0,0.1-0.1,0.1-0.1,0.1c0,0.1-0.1,0.1-0.2,0.1c0,0.1,0,0.1,0,0.1s-0.7,0.7-0.7,0.9
		c-0.1,0.2-0.3,0.4-0.7,0.8c-0.1,0-0.1,0.2-0.2,0.3c0,0.1-0.1,0.3-0.2,0.3h0c0,0-0.1,0.1-0.1,0.2c0,0.1,0,0.2-0.1,0.2
		c0,0-0.1,0-0.1,0.1c0,0-0.1,0.1-0.1,0.1c-0.2,0-0.6,0.5-0.8,0.7c0,0.1-0.1,0.3-0.3,0.3c-0.1,0-0.1,0.2-0.2,0.2c0,0-0.1,0.1-0.1,0.1
		c0,0-0.2,0.2-0.2,0.2c0,0,0,0,0.1,0c0.1,0,0.1,0.1,0.2,0.1s0.1-0.1,0.2-0.1c0.5-0.1,0.9-0.2,1.1-0.2c0.3-0.1,0.8-0.2,1.1-0.2
		c0.1,0,0.2,0,0.2-0.1h0.3c0.1,0,0.2,0,0.4-0.1c0.1-0.1,0.2-0.1,0.3-0.1l0,0.1c0.1,0,0.1,0,0.1-0.1c0,0,0.1,0,0.1,0h0.1
		c0.1,0,0.1,0,0.1,0l0.4-0.1c0.2,0,0.3,0,0.4-0.1c0.2-0.1,0.2-0.1,0.5-0.1c0.1,0,0.3,0,0.3,0c0.1,0,0.3,0,0.5-0.1c0,0,0.2,0,0.2,0
		h0.1c0.1,0,0.3,0,0.3-0.1c0.1,0,0.4-0.1,0.5-0.1c0.1,0,0.3,0,0.3,0c0-0.1,0.4-0.1,0.5-0.1h0.1c0-0.1,0.1-0.1,0.1-0.1
		c0.1,0,0.2,0,0.4,0c0.4-0.1,0.9-0.1,1.1-0.1h0.1c0.1,0,0.3-0.1,0.3-0.1c0.3-0.1,0.6-0.1,0.8-0.1h0.1c0.1,0,0.1,0,0.1-0.1h0.5
		c0.2,0,0.5,0,0.6-0.1H55c0.1,0,0.2,0,0.3,0c0.1,0,0.3,0,0.3-0.1h0.4l0.1,0.1h0.1c0-0.1,0.2-0.1,0.2-0.1l0.3,0.1h0.2
		c0,0,0.1-0.1,0.1-0.1s0-0.1,0-0.1l0,0.1c0,0.1,0.1,0.1,0.1,0.1c0-0.1,0-0.1,0-0.1v0.1c0,0,0.2,0,0.7,0.1c0.1,0,0.2,0,0.3,0H59
		c0.1,0,0.2,0,0.3,0.1c0.1,0.1,0.1,0.1,0.1,0.2l0,0c0,0.1,0.1,0.3,0.2,0.4c0.1,0,0.2,0.1,0.2,0.3l0,0.1c0,0.2,0,0.2-0.1,0.2
		c-0.1,0-0.1,0.1-0.2,0.1l0,0.4c0,0.3,0,0.3-0.2,0.4c-0.1,0-0.1,0-0.1,0.1c0,0.2-0.1,0.2-0.3,0.2h-0.2c-0.1,0.2-0.4,0.5-0.5,0.5
		c0,0-0.1,0-0.2,0c-0.1,0.1-0.2,0.1-0.2,0.3c0,0.1-0.1,0.1-0.1,0.1h-0.1c0,0-0.1,0-0.1,0.1c-0.1,0-0.1,0-0.1,0c0,0-0.1,0-0.1,0.1
		c0,0-0.1,0.1-0.2,0.1h-0.1c-0.1,0-0.3,0-0.3,0c-0.1,0.1-0.2,0.1-0.3,0.1c-0.5,0-0.5,0-0.8,0.2c-0.1,0.1-0.2,0.2-0.3,0.2
		c-0.1,0.1-0.2,0.1-0.3,0.1c0,0.1-0.1,0.1-0.1,0.1l0-0.1c-0.1,0-0.4,0.1-0.6,0.1c-0.1,0.1-0.1,0.1-0.3,0.1c0,0-0.2,0-0.2,0.1
		c-0.1,0.1-0.1,0.1-0.1,0.1l0,0v-0.1c-0.1,0-0.1,0.1-0.1,0.1c0,0.1-0.1,0.1-0.2,0.1c-0.2,0-0.3,0.1-0.3,0.1v0c0,0,0,0.1-0.2,0.1
		c0,0-0.1-0.1-0.1-0.1c-0.1,0-0.1,0.1-0.2,0.1c-0.1,0.1-0.3,0.2-0.3,0.2c0,0,0,0-0.1,0l0-0.1h0c0,0.1-0.1,0.1-0.1,0.1
		c-0.1,0-0.1,0-0.1,0v0.1h0c-0.1,0-0.1,0-0.2,0c-0.1,0-0.3,0-0.5,0.1h-0.1c-0.1,0-0.2,0-0.2,0.1c0,0-0.2,0.1-0.4,0.1h-0.1
		c-0.1,0-0.4,0.1-0.5,0.1c0,0.1-0.1,0.1-0.1,0.1l0-0.1l0,0.1c0,0,0,0-0.1,0c-0.1,0-0.1,0-0.2,0c-0.2,0-0.3,0-0.3,0.1h-0.2
		c0,0.1-0.2,0.1-0.3,0.1c0,0-0.1,0-0.1,0c0,0-0.1,0-0.1,0c-0.1,0-0.2,0.1-0.2,0.1c0,0,0,0.1,0,0.1c0,0-0.1-0.1-0.1-0.1h0
		c0,0-0.1,0-0.1,0.1c0,0.1-0.1,0.1-0.2,0.1h-0.1v0.1c0,0,0,0,0,0.1h-0.1v-0.1h-0.1c-0.1,0.1-0.2,0.1-0.3,0.1c0,0-0.1,0-0.1-0.1
		c0,0-0.1-0.1-0.1-0.1l0,0.1c-0.1,0.1-0.3,0.1-0.4,0.1h-0.1c0,0,0,0,0,0c0,0-0.1,0-0.1-0.1h-0.1c0,0.1-0.1,0.1-0.1,0.1
		c0,0-0.1-0.1-0.1-0.1c0-0.1,0-0.1-0.1-0.1c0,0-0.1,0.1-0.2,0.1c-0.1,0.1-0.2,0.2-0.3,0.2l0-0.1c-0.1,0-0.3,0.1-0.3,0.1v0l0,0
		c0-0.1-0.1-0.1-0.2-0.1h-0.1c0,0-0.1,0-0.2,0c0,0.1-0.1,0.1-0.6,0.2c-0.1,0-0.3,0.1-0.3,0.1c-0.1,0-0.2,0-0.3,0
		c-0.1,0-0.3,0.1-0.5,0.1c-0.1,0-0.3,0.1-0.4,0.1h-0.1c0,0.1,0,0.1-0.1,0.1c-0.1,0-0.1,0-0.2,0h-0.3c-0.1,0-0.3,0-0.3,0.1
		c0,0-0.2,0-0.4,0c0,0-0.1,0-0.2,0H39c0,0-0.1,0.1-0.1,0.1c-0.1,0-0.1-0.1-0.2-0.1h-0.3l-0.1,0.1l0,0c0,0-0.1-0.1-0.1-0.1h-0.1
		c0,0.1,0,0.1,0,0.1l0-0.1c-0.1,0-0.3-0.1-0.5-0.1c-0.3,0-0.4,0-0.4-0.1c-0.1-0.2-0.4-0.3-0.6-0.3c0,0-0.1,0-0.1-0.1
		c0,0-0.1,0-0.2,0c0,0-0.1,0-0.1-0.1l-0.1-0.1c0-0.1-0.1-0.1-0.1-0.2c0,0-0.1-0.1-0.1-0.1l-0.1-0.1l0-0.1c0-0.1-0.1-0.1-0.2-0.2
		c0,0-0.1-0.1-0.1-0.2v-0.1c0,0-0.1-0.1-0.1-0.1c0,0-0.3-0.4-0.3-0.5c0,0-0.1-0.1-0.1-0.2c-0.1-0.1-0.1-0.2-0.1-0.2
		c0-0.1,0-0.1-0.1-0.2c-0.1-0.1-0.1-0.2-0.1-0.3c0-0.1,0-0.2-0.1-0.3c-0.1,0-0.1,0-0.1-0.1v-0.1c0-0.1,0.1-0.3,0.2-0.3l0.1-0.1
		l0-0.5c-0.1-0.2-0.1-0.4-0.1-0.5c0,0,0.1-0.1,0.1-0.1c0-0.2,0.1-0.2,0.1-0.2l0.2-0.1c0.1-0.1,0.1-0.2,0.2-0.2c0,0,0.1-0.1,0.1-0.1
		l0.3-0.3c0.1-0.1,0.3-0.2,0.3-0.3c0-0.1,0-0.1,0.1-0.1c0-0.1,0.1-0.1,0.1-0.1c0.1-0.1,0.3-0.3,0.3-0.3v-0.1
		c0.1-0.1,0.1-0.1,0.2-0.1c0.1,0,0.1-0.1,0.2-0.1c0-0.1,0-0.1,0.1-0.1h0c0.1,0,0.1,0,0.1-0.1c0.1-0.1,0.2-0.3,0.4-0.5
		c0.2-0.1,0.4-0.3,0.4-0.4c0-0.1,0.1-0.1,0.1-0.1c0,0,0.1,0,0.1-0.1c0,0,0.2-0.2,0.2-0.2c0,0,0.1,0,0.1-0.1c0,0,0.1,0,0.1,0
		c0.1,0,0.3-0.2,0.3-0.3c0,0,0.6-0.8,0.6-0.8l0.2-0.1c0.1-0.2,0.2-0.2,0.2-0.2c0.1,0,0.1-0.1,0.1-0.1c0,0,0-0.1,0.1-0.2
		c0.1,0,0.1-0.1,0.1-0.1c0-0.1,0.1-0.2,0.2-0.2v-0.1c0-0.1,0-0.1,0.1-0.1c0,0,0.3-0.2,0.6-0.5c0.6-0.7,0.6-0.8,0.8-0.8
		c0,0,0.1-0.1,0.1-0.1c0,0,0-0.2,0.1-0.2c0,0,0.1-0.1,0.1-0.1c0,0,0.1-0.2,0.4-0.4c0.3-0.4,0.3-0.4,0.4-0.7c0-0.2,0.1-0.3,0.1-0.4
		c0.1-0.1,0.2-0.2,0.2-0.3c0.1-0.1,0.2-0.3,0.3-0.4c0.1-0.1,0.2-0.2,0.2-0.3c0.1-0.2,0.2-0.3,0.3-0.4c0.1-0.1,0.1-0.2,0.1-0.2
		c0,0,0.1-0.2,0.2-0.3c0.3-0.3,0.6-0.7,0.6-0.8c0-0.1,0.3-0.5,0.3-0.5c0.1-0.1,0.2-0.2,0.2-0.2c0-0.1,0.1-0.1,0.2-0.3
		c0-0.1,0.2-0.3,0.2-0.3c0,0,0-0.1,0.1-0.1c0.1-0.1,0.2-0.1,0.3-0.2c0-0.1,0.1-0.3,0.2-0.4c0.2-0.1,0.2-0.2,0.2-0.3
		c0-0.1,0.1-0.1,0.1-0.1c0,0,0.1-0.1,0.1-0.2c0.1-0.1,0.1-0.2,0.2-0.2c0-0.1,0-0.1,0.1-0.2c0-0.1,0.1-0.2,0.1-0.3
		c0.1-0.1,0.2-0.2,0.2-0.3s0.1-0.2,0.2-0.4c0.1-0.1,0.2-0.3,0.2-0.4c0.1-0.1,0.1-0.2,0.1-0.2c0.1,0,0.3-0.2,0.4-0.7
		c0,0,0.1-0.2,0.2-0.2l0-0.3c0-0.1,0.1-0.2,0.1-0.2c0,0,0.2-0.2,0.2-0.4v-0.1c0,0,0,0,0,0h0c0-0.1,0.1-0.1,0.1-0.1
		c0-0.1,0.1-0.2,0.1-0.2c0,0,0-0.1,0-0.1c0-0.1,0.1-0.2,0.2-0.4c0.1-0.1,0.1-0.2,0.2-0.3c0.1-0.1,0.1-0.2,0.1-0.3l0.2-0.2
		c0-0.1,0-0.2,0.1-0.2c0,0,0.2-0.3,0.2-0.4c0,0,0-0.3,0.2-0.6c0.1-0.2,0.3-0.5,0.3-0.7c0-0.1,0-0.2,0.1-0.3c0,0,0-0.1,0.1-0.2
		c0-0.2,0-0.2,0-0.3c0,0,0.1-0.1,0.1-0.2c0-0.1,0-0.1,0-0.1c0.1-0.1,0.1-0.2,0.1-0.3l0.1-0.7l-0.3,0h-0.3c-0.3,0-0.6,0-0.6,0.1h-0.1
		l0-0.1c0,0,0,0-0.1,0c-0.1,0.1-0.1,0.1-0.2,0.1c-0.1,0-0.2,0-0.2,0.1l-0.1,0v0c-0.1,0-0.1,0-0.1,0.1c0,0-0.2,0-0.3,0
		c-0.2,0-0.5,0.1-0.7,0.2c-0.1,0.1-0.2,0.1-0.2,0.1c-0.1,0-0.3,0.1-0.3,0.1c0,0-0.2,0.1-0.3,0.1h0c-0.1,0-0.1,0-0.1,0.1l-0.4,0.1
		c0,0-0.3,0.2-0.4,0.2c-0.2,0-0.4,0.2-0.4,0.3h-0.1c0,0-0.1,0-0.1,0h0l-0.1,0.1c-0.1,0.1-0.2,0.1-0.3,0.1c0,0-0.2,0.1-0.3,0.1
		c-0.1,0.1-0.3,0.1-0.3,0.1C45,15,45,15.1,45,15.1c0,0.1-0.2,0.1-0.3,0.1c0,0-0.2,0.2-0.2,0.2h-0.1c0,0-0.1,0.1-0.2,0.2
		c-0.1,0.1-0.2,0.1-0.3,0.1c-0.1,0-0.3,0.1-0.3,0.1c0,0-0.1,0.1-0.2,0.1c0,0.1-0.1,0.1-0.2,0.1c0,0.1,0,0.1-0.1,0.1
		c-0.1,0-0.3,0.1-0.3,0.2c-0.1,0-0.2,0.1-0.3,0.1c0,0-0.1,0.1-0.1,0.1c0,0.1,0,0.1,0,0.1s-0.1,0-0.2,0.1c0,0.1-0.1,0.2-0.1,0.2
		c-0.1,0-0.5,0.2-0.7,0.5c-0.1,0.1-0.2,0.1-0.3,0.1c-0.1,0-0.2,0.1-0.2,0.2c-0.1,0.1-0.3,0.2-0.3,0.3c-0.1,0-0.2,0-0.3,0.1
		c0,0.1-0.1,0.2-0.2,0.2c0,0,0,0,0,0.1h0c0,0-0.1,0-0.1,0.2c0,0.1,0,0.1-0.2,0.1h0c0,0-0.1,0-0.2,0.2c-0.2,0.2-0.3,0.3-0.5,0.3h-0.1
		c-0.1,0-0.1,0-0.3,0.1H38v-0.1c-0.1,0-0.1,0-0.2,0.1h-0.2c-0.2,0-0.2-0.1-0.3-0.1c0-0.1-0.1-0.1-0.1-0.1c0,0-0.1-0.1-0.1-0.1
		c0,0,0,0-0.1-0.1c0,0-0.1,0-0.1,0.1h-0.1c-0.1,0-0.2-0.1-0.2-0.2c0-0.1,0-0.1-0.1-0.1h-0.1l0,0v-0.2c-0.1-0.2-0.1-0.3-0.2-0.3
		c-0.1,0-0.3-0.4-0.3-0.7l0-0.3h0l0-0.3c0.1-0.1,0.1-0.3,0.1-0.3c0,0,0.1-0.2,0.2-0.3c0.1-0.2,0.1-0.3,0.2-0.3c0,0,0.1-0.1,0.1-0.2
		c0.1-0.2,0.2-0.4,0.3-0.4c0,0,0.2-0.1,0.2-0.1c0.1-0.1,0.1-0.2,0.2-0.2c0.1,0,0.1,0,0.1,0c0.2-0.3,0.3-0.5,0.4-0.5l0.1-0.1
		c0,0,0-0.1,0.1-0.1l0.3-0.1c0-0.1,0.1-0.1,0.1-0.1c0.1,0,0.1,0,0.1-0.1c0.1,0,0.1-0.1,0.1-0.1s0.1,0,0.2-0.1
		c0.1-0.1,0.4-0.4,0.6-0.5c0,0,0.1,0,0.2-0.1c0.1,0,0.1-0.1,0.1-0.1c0-0.1,0.2-0.1,0.3-0.1h0c0,0,0.1-0.1,0.1-0.2
		c0-0.1,0.1-0.2,0.1-0.2c0,0,0.1-0.1,0.1-0.1c0.1,0,0.1,0,0.1,0h0.1c0,0,0.1-0.1,0.2-0.1h0l0.1-0.1c0-0.1,0.2-0.1,0.3-0.2
		c0.1-0.1,0.3-0.1,0.3-0.2c0,0,0.1-0.1,0.1-0.1c0.1,0,0.1,0,0.3,0l0.1-0.1c0,0,0.1-0.1,0.1-0.1c0.2-0.2,0.4-0.2,0.5-0.2
		c0,0,0.1,0,0.1-0.1c0-0.1,0.1-0.1,0.1-0.1c0,0,0.2-0.1,0.3-0.2c0.1-0.1,0.1-0.1,0.2-0.1l0.1-0.1c0-0.1,0-0.1,0.1-0.1H44
		c0,0,0-0.1,0.1-0.1h0.2c0-0.1,0.1-0.1,0.1-0.1c0,0,0.1,0,0.1-0.1c0.1,0,0.2-0.1,0.3-0.1c0.1,0,0.2,0,0.3-0.1
		c0.1-0.1,0.2-0.1,0.3-0.1c0.1,0,0.1-0.1,0.2-0.1c0.1,0,0.1,0,0.3-0.1c0.2-0.1,0.4-0.1,0.4-0.3c0.1-0.1,0.1-0.1,0.1-0.1l0.1,0h0.1
		c0.1,0,0.1,0,0.2,0l0.3-0.2c0,0,0.2,0,0.3-0.1c0.1-0.1,0.2-0.1,0.3-0.1c0.1,0,0.3,0,0.3,0C48.3,9,48.3,9,48.4,9h0
		c0,0,0.1,0,0.3-0.1c0.1,0,0.1,0,0.2,0c0,0,0,0,0.1,0C49.1,8.8,49.3,8.8,49.3,8.7z"/>
	<path d="M90.5,47.9c0-0.1-0.1-0.1-0.1-0.1L90.1,48c-0.2-0.1-0.3-0.2-0.3-0.3c0-0.1,0-0.1-0.1-0.1v0.1c-0.1,0-0.1,0-0.1,0l-0.4-0.3
		c-0.2-0.2-0.3-0.3-0.3-0.4c-0.1,0-0.2-0.1-0.3-0.2c-0.3-0.3-0.4-0.5-0.5-0.6c0-0.1-0.1-0.1-0.1-0.1c0,0,0,0-0.1,0
		c-0.1,0-0.1-0.1-0.1-0.1c0,0-0.2-0.1-0.4-0.3l-0.1-0.2c-0.2-0.2-0.3-0.3-0.4-0.3c-0.1-0.1-0.1-0.1-0.1-0.1
		c-0.1-0.1-0.1-0.2-0.1-0.2c0,0,0,0,0-0.1c-0.3-0.4-0.5-0.9-0.7-1.4l-0.5-0.9c0-0.1-0.1-0.3-0.1-0.3c0,0-0.1-0.1-0.1-0.3
		c-0.1-0.1-0.1-0.2-0.3-0.3l0-0.1l0-0.1c0-0.2-0.1-0.4-0.3-0.6v-0.1c0-0.1-0.1-0.4-0.1-1c-0.1-0.6-0.2-0.9-0.2-0.9
		c0-0.1-0.1-0.5-0.2-1.4c-0.5-3.4-0.8-6.6-0.8-9.5c0-0.2,0-0.3,0-0.3c0,0,0,0,0-0.1l-0.1-0.3l0-0.1v-0.4l-0.1-0.2l0.1-0.1l-0.1-0.2
		c0-0.1,0.1-0.3,0.1-0.5c0-0.2,0-0.5,0-0.7l0-0.5l0.1-0.3c0,0,0-0.1,0-0.1c0-0.1,0-0.1,0-0.1c0-0.1,0-0.2,0-0.4l0-0.4c0,0,0,0,0,0
		c0-0.1,0-0.1,0-0.2l0-0.1h0.1l-0.1,0c0-0.2,0-0.4,0.1-0.5C83,21,83,20.8,83,20.5c0-0.1-0.1-0.3-0.1-0.4c0-0.1-0.1-0.2-0.1-0.2
		c0.1,0,0.1-0.1,0.1-0.3h-0.1l0.1,0v-0.1c0,0,0,0,0-0.1c0,0,0,0,0-0.1c0-0.2,0-0.3,0.1-0.5c0.1-0.1,0.1-0.3,0.1-0.5c0,0,0,0-0.1-0.1
		c0,0,0,0-0.1-0.1c0.1-0.4,0.2-0.7,0.2-1c0-0.7,0-1.6,0.1-2.7c0-0.1,0-0.1,0-0.1c0-0.1,0-0.1-0.1-0.1v0.1l-0.1-0.1h-0.1
		c-0.1,0.1-0.1,0.1-0.2,0.1c0,0-0.1,0-0.1,0.1c0,0.1-0.3,0.1-0.6,0.1c-0.7,0.1-1.2,0.2-1.3,0.5L80.4,15c0-0.1,0-0.1,0-0.1V15
		L80.1,15C80,15,80,15,79.9,15c0,0.1-0.2,0.1-0.6,0.1c-0.3,0-0.6,0.1-0.8,0.2c-0.1,0.1-0.2,0.1-0.4,0.1c-0.3,0-0.4,0.1-0.4,0.1
		c-0.1,0.1-0.1,0.2-0.3,0.2C77.2,16,77,16,76.7,16c0,0.1,0,0.1-0.1,0.1c-0.1,0-0.1,0-0.2,0c0,0.1-0.1,0.1-0.1,0.1l-0.1-0.1
		c-0.1,0-0.3,0.1-0.5,0.1c-0.2,0.1-0.4,0.2-0.5,0.2c-0.2,0.1-0.3,0.1-0.3,0.1c0,0.1-0.1,0.1-0.1,0.1c0,0-0.1,0.1-0.2,0.2
		c-0.1,0.1-0.3,0.1-0.5,0.1c-0.1,0-0.1,0-0.1,0c-0.1,0.1-0.2,0.1-0.3,0.1c0,0-0.1,0-0.1,0c0,0.1,0,0.1-0.1,0.1c0,0.1,0,0.1-0.1,0.1
		H73c-0.5,0.2-0.9,0.3-1.3,0.3l-0.4,0.1c-0.7,0.1-1.2,0.2-1.4,0.2l-0.2,0.1c-0.1,0-0.2,0-0.3-0.1c-0.2,0.1-0.4,0.1-0.5,0.1v0.1
		c-0.2,0-0.3-0.1-0.4-0.1c-0.1-0.1-0.2-0.1-0.3-0.1c-0.2,0.1-0.3,0.1-0.3,0.1c0,0.1-0.1,0.1-0.2,0.1l-0.1-0.1
		c-0.4,0.1-0.6,0.2-0.7,0.2c-0.1,0-0.2,0.1-0.2,0.1h-0.3v-0.1h-0.7c-1.1,0-1.9-0.3-2.4-1c-0.1,0-0.1,0-0.1,0c-0.2,0-0.3-0.1-0.3-0.3
		c0-0.1,0-0.1,0.1-0.2c0-0.1,0-0.2-0.1-0.3c-0.1-0.1-0.1-0.1-0.1-0.3c0,0,0.2,0,0.5-0.2c0.1-0.1,0.1-0.1,0.1-0.1
		c0.1,0,0.1,0,0.1-0.1c0,0,0.1,0,0.1-0.1c0-0.1,0.1-0.1,0.2-0.1s0.1-0.1,0.3-0.2l0.2,0.1c0-0.1,0.2-0.1,0.3-0.1l0.1,0.1
		c0.1,0,0.2,0,0.3-0.1c0.1-0.1,0.3-0.2,0.6-0.2c0.1,0,0.1,0,0.3-0.1c0.1,0,0.2,0,0.2,0c0,0,0.1,0,0.1-0.1c0,0,0.1,0,0.1,0
		c0.2-0.1,0.3-0.1,0.5-0.1c0.1-0.2,0.5-0.4,1.2-0.4c0-0.1,0.1-0.1,0.3-0.1c0.1,0,0.2-0.1,0.3-0.1c0.1-0.1,0.1-0.1,0.2-0.1
		c0.1,0,0.2-0.1,0.5-0.2c0.3,0,0.6-0.1,1-0.2c0,0,0,0,0,0h0l0.1-0.1c0.3,0,0.7-0.1,1-0.3c0.4-0.1,1.1-0.3,2-0.7
		c0.2-0.1,0.5-0.1,0.8-0.1l0,0.1c0.1,0,0.3-0.1,0.4-0.2c0,0,0.1-0.1,0.2-0.1c0-0.1,0.1-0.1,0.3-0.1c0.1,0,0.2,0,0.2-0.1
		c0,0,0.1,0,0.2-0.1c0.1,0,0.1,0,0.1,0c0,0,0,0,0.1-0.1c0-0.1,0-0.1,0.1-0.1c0.1,0,0.1,0,0.1,0h0.6l0.2-0.1c0.3,0,0.5-0.1,0.5-0.2
		H78v0.1c0.2,0,0.4-0.1,0.4-0.1c0-0.1,0.3-0.1,0.7-0.2v0l1.4-0.3c0-0.1,0.2-0.2,0.6-0.2c0.2,0,0.4,0,0.7-0.1
		c0.2-0.1,0.4-0.1,0.5-0.1c0.1,0,0.1,0,0.2-0.1c0.2,0,0.4,0,0.6-0.1c0.1,0,0.1,0,0.1-0.1c0,0,0-0.1,0-0.4l-0.1-0.2
		c0-0.1,0-0.2,0-0.3c0-0.1,0-0.2,0.1-0.4c-0.1-0.1-0.1-0.1-0.1-0.1c0,0,0-0.1,0-0.2s0-0.1,0-0.1c0,0,0,0,0-0.1c-0.1,0-0.1,0-0.1,0
		c0.1-0.1,0.3-0.3,0.3-0.5c-0.1,0-0.1,0-0.1,0c0-0.1,0-0.1-0.1-0.1c0,0-0.1-0.1-0.1-0.4l0.6-0.1l0.6-0.6c0.1,0,0.1,0,0.1,0.1
		c0.1,0,0.1,0.1,0.3,0.1c0,0,0.1,0.1,0.2,0.1c0.4,0,0.7,0,0.9,0.2s0.4,0.2,0.5,0.2c1,0.5,1.6,1.1,1.8,1.7c0.1,0.2,0.2,0.4,0.4,0.4
		C89.5,9,90.2,8.9,91,8.8c1.6,0,2.5-0.1,2.5-0.3c0.4,0,0.7,0,0.8-0.1h0.1v0l0.2,0.1l2.7-0.1c0.1,0.1,0.2,0.1,0.4,0.1
		c0.1,0,0.4,0.1,1,0.1c0.1,0.1,0.5,0.1,1.2,0.1c0,0.1,0,0.1,0.1,0.1c0,0.1,0.3,0.1,0.7,0.1c0.1,0,0.2,0.1,0.2,0.3
		c0,0.1,0.3,0.3,0.7,0.4c0,0,0.1,0.1,0.2,0.1c0.1,0,0.1,0,0.1,0.1c0,0.1-0.2,0.3-0.5,0.5c-0.1,0-0.1,0-0.1,0
		c-0.1,0.1-0.2,0.1-0.2,0.1c0,0.1,0,0.1-0.1,0.1c0,0-0.1,0-0.3,0l-0.9,0v0.1c0,0,0,0,0,0.2c0,0,0,0-0.1,0.1c0,0-0.2,0.1-0.3,0.1
		c-0.5,0-1.1,0-1.6,0.1C97.6,11,97.4,11,97.1,11c0,0-0.2,0-0.6,0c-0.2,0.1-0.3,0.1-0.3,0.3l0.1,0c-0.1,0.1-0.8,0.2-1.9,0.2
		c-0.2,0.1-0.5,0.1-0.8,0.1l0,0.1h-0.1c0,0-0.1,0-0.2,0l-1,0.3c0,0.1-0.4,0.2-1.2,0.2c-0.4,0-0.6,0.1-0.8,0.1l-0.1,0
		c-0.3,0-0.6,0-0.8,0.2c-0.1,0-0.3,0.1-0.5,0.1c-0.1,0-0.1,0.1-0.1,0.1l0,0.6l0,0.7c0,0.2,0,0.3,0,0.3c0,0.1,0,0.1,0,0.1
		c0,0,0,0.1,0,0.1c0,0.1-0.1,0.1-0.1,0.3c0,0.1-0.1,0.5-0.1,1l0.1,0.5c-0.1,1.5-0.3,2.6-0.3,3.4c0,0-0.1,0.1-0.1,0.1
		c0,0.1,0,0.3,0.1,0.4c0,0-0.1,0.1-0.1,0.2l0.1,0.8l-0.1,0.1l0,0.3l0,0.8l0,0.1c0,0.1,0,0.2,0,0.3c0,0.1,0,0.3,0,0.7
		c-0.1,0-0.1,0.3-0.1,1.1l-0.1,0.1c0,1.4,0,2.2,0,2.4c0,0.2,0,0.4,0,0.6c0,0-0.1,0-0.1,0.1c-0.1,0-0.1,0.1-0.1,0.2
		c0,0,0,0.1,0.1,0.2c0,0,0,0.1,0,0.1c0,0.6,0,1,0,1.3c0,2.8,0.1,4.4,0.3,4.7c0,0.2-0.1,0.5-0.1,0.7c0,0.5,0,0.8,0.2,0.8v0.2
		c-0.2,0.2-0.3,0.5-0.3,0.9c0,0.1,0,0.2,0,0.2c0,0.1,0,0.2,0,0.3l0,0.2c0.1,0,0.1,0.1,0.2,0.1c0,0.6,0,0.9,0.2,1.1
		c0,0.1,0,0.1,0,0.1c0.1,0.1,0.1,0.2,0.2,0.5c0,0.2,0,0.3,0.1,0.4c0,0.5,0.1,1,0.4,1.2c0.1,0.1,0.2,0.5,0.2,1s0.2,1.2,0.7,1.8
		c0,0.1,0,0.1,0.1,0.1c0,0.1,0,0.1,0.1,0.1c0,0.3,0.3,0.7,0.9,1.2c0.1,0.1,0.1,0.2,0.3,0.4c0.2,0.1,0.3,0.3,0.3,0.4c0,0,0,0,0.1,0.1
		c0,0.1,0,0.1,0.1,0.1c0,0,0,0.1,0.1,0.2l-0.1,0.1c-0.4,0-0.8,0.1-0.9,0.4L90.7,48C90.6,48,90.5,48,90.5,47.9z"/>
	<path d="M111.2,28.3c0,0-0.1,0-0.2-0.1l-0.2-0.1l-0.1,0c-0.1,0-0.2,0.1-0.2,0.1c-0.1,0-0.3-0.3-0.3-0.5c-0.1-0.2-0.1-0.5-0.1-0.7
		v-0.2c0,0,0-0.1-0.1-0.2c-0.1-0.1-0.1-0.2-0.1-0.3c0-0.1,0-0.1,0-0.1c0-0.1,0-0.1-0.1-0.2c-0.1-0.1-0.1-0.2-0.2-0.3
		c0-0.1-0.1-0.1-0.1-0.2c0-0.1,0-0.1,0-0.1c0-0.1-0.1-0.2-0.1-0.2c-0.3-0.2-0.4-0.3-0.5-0.3h-0.2c-0.1,0-0.1,0-0.3,0
		c-0.1,0-0.2,0-0.2,0.1c-0.1,0-0.1,0.1-0.2,0.1c-0.1,0-0.1,0-0.1,0c0,0-0.1,0.1-0.3,0.1c-0.3,0-0.5,0.1-0.6,0.2
		c0,0.1-0.1,0.1-0.2,0.1c-0.2,0-0.3,0.1-0.3,0.2c0,0-0.1,0.1-0.2,0.1c-0.1,0-0.1,0.1-0.2,0.2c0,0.1-0.1,0.2-0.3,0.2
		c0,0.1-0.1,0.1-0.1,0.2c0,0.1,0,0.1-0.1,0.1c0,0-0.1,0.1-0.1,0.1c0,0,0,0.1-0.1,0.1c0,0,0,0,0-0.1l0.1-0.1h-0.1c0,0,0,0-0.1,0.1
		c0,0.1-0.3,0.3-0.3,0.3c0,0-0.2,0.3-0.2,0.4c0,0,0,0.1-0.1,0.2c0,0.1-0.1,0.2-0.1,0.3c0,0,0,0.2-0.1,0.2c-0.1,0.1-0.1,0.2-0.1,0.2
		c0,0.1,0,0.1,0,0.1l-0.1,0.3c0,0.1-0.1,0.2-0.1,0.4c0,0.1-0.1,0.3-0.1,0.3c0,0.1,0,0.1,0,0.1c0,0-0.1,0.1-0.1,0.2l-0.1,0.2v0.1l0,0
		c0,0.1,0,0.1-0.1,0.1c-0.1,0-0.1,0.1-0.1,0.2c0,0.1,0,0.1,0,0.2c0.1,0,0.1,0.1,0.1,0.1c0,0.1,0,0.1-0.1,0.2
		c-0.1,0.3-0.2,0.6-0.3,0.8c-0.1,0.1-0.1,0.1-0.1,0.2c0,0.1,0,0.1,0,0.2c-0.1,0.1-0.1,0.1-0.1,0.2c0,0.3,0,0.6-0.1,0.7
		c0,0,0,0.1,0,0.3c0,0.1,0,0.4-0.1,0.4c-0.2,0.4-0.2,0.5-0.2,0.8c0,0.2,0,0.3,0,0.3c0,0,0,0.1,0,0.3c-0.1,0.1-0.1,0.1-0.1,0.2
		c0,0-0.1,0.2-0.1,0.3c0,0.1-0.1,0.3-0.1,0.5c-0.1,0.1-0.1,0.2-0.1,0.3c0,0,0,0.2,0,0.3c0,0.1-0.1,0.3-0.1,0.4l-0.1,0.2
		c0,0.1-0.1,0.2-0.1,0.3c0,0.3-0.1,0.7-0.2,0.7c0,0.1,0,0.1,0,0.2c0,0.1,0,0.1,0,0.2c0,0,0,0.1,0,0.2v0.3c0.1,0.1,0.1,0.1,0.1,0.3
		c0,0.1,0,0.3,0,0.7c-0.1,0.2-0.1,0.4-0.3,0.5c-0.1,0.1-0.1,0.1-0.1,0.2c0,0,0,0-0.1,0.1c-0.1,0-0.1,0-0.1,0.1
		c-0.1,0.1-0.1,0.1-0.1,0.1c-0.1,0-0.2-0.1-0.4-0.1c-0.1,0-0.3,0-0.3,0c-0.1,0-0.1-0.1-0.2-0.1c-0.1-0.1-0.3-0.1-0.3-0.1
		c-0.2-0.1-0.3-0.1-0.3-0.1c0-0.1-0.2-0.2-0.3-0.2c-0.1,0-0.1-0.1-0.2-0.1l0,0c0,0-0.1-0.1-0.2-0.1c-0.1-0.1-0.3-0.3-0.3-0.3
		s-0.1-0.1-0.2-0.2c0-0.1-0.1-0.2-0.2-0.3c0,0-0.1-0.2-0.1-0.3c-0.1-0.5-0.1-0.6-0.4-0.7c-0.1-0.1-0.1-0.1-0.1-0.2
		c0-0.1,0-0.2-0.1-0.2c-0.1-0.1-0.1-0.8-0.1-1.3c0-0.3,0-0.5,0.1-0.7c0-0.1,0-0.2-0.1-0.4c-0.1-0.4-0.1-0.6-0.1-0.8
		c0-0.1,0-0.3,0-0.5v-2.4c0-0.1,0-0.2,0-0.3c0-0.1,0-0.2,0-0.2l0,0c0-0.1,0-0.1,0.1-0.2c0-0.1,0.1-0.2,0.1-0.3c0-0.1,0-0.2,0-0.3
		c0-0.4,0.1-1,0.1-1.1v-0.1c0,0,0-0.1-0.1-0.2c0,0,0-0.1,0-0.1c0-0.1,0-0.1,0-0.2v-0.4c0-0.1,0.1-0.3,0.1-0.3v-0.3
		c-0.1-0.1-0.1-0.4-0.1-0.6c0-0.5,0-0.5,0-0.8c0-0.1,0-0.3,0-0.3l-0.1-0.1l0.1-0.1c0,0,0-0.2-0.1-0.4v-0.5c0-0.1-0.1-0.3-0.2-0.4
		c0-0.1,0-0.2,0-0.3c0-0.1-0.1-0.1-0.2-0.2c-0.1-0.1-0.1-0.2-0.1-0.3v-0.1c0,0,0-0.1,0-0.1c-0.1,0-0.1-0.1-0.1-0.1
		c0-0.1,0.1-0.1,0.1-0.2h0.5c0.1,0,0.1,0.1,0.1,0.1c0.1,0,0.1-0.1,0.1-0.1c0.1,0,0.3-0.1,0.3-0.1c0,0,0.1,0.1,0.1,0.1
		c0,0.1,0.1,0.1,0.1,0.1l0.1-0.1c0-0.1,0.2-0.2,0.4-0.2c0,0,0,0,0.1,0.1c0,0.1,0.1,0.2,0.2,0.2s0.1,0.1,0.2,0.2
		c0.1,0.1,0.3,0.2,0.3,0.2c0,0,0.1,0.1,0.2,0.1c0.2,0.1,0.5,0.2,0.6,0.2h0c0,0,0.2,0.1,0.2,0.1c0,0.1,0.1,0.1,0.2,0.2
		c0,0.1,0.1,0.2,0.1,0.2c0,0,0,0.2,0.1,0.3c0,0,0.1,0.1,0.1,0.2c0,0,0.1,0.1,0.1,0.1l0.2,0.2c0,0,0,0.1,0,0.2v0.1
		c0,0.1,0,0.2,0.1,0.2c0,0,0-0.1,0-0.1c0-0.1,0-0.1,0.1-0.2c0.1-0.1,0.3-0.4,0.3-0.6c0-0.1,0-0.1,0.1-0.1c0.1,0,0.1-0.1,0.1-0.2
		c0-0.1,0-0.1,0-0.1c0,0,0-0.1,0.1-0.1c0-0.2,0-0.2,0.2-0.2c0.1,0,0.2,0,0.3-0.3c0-0.1,0.1-0.2,0.1-0.2c0.1-0.1,0.1-0.1,0.5-0.5
		c0.1-0.1,0.2-0.2,0.3-0.3c0,0,0.1,0,0.1-0.1l0-0.1h0c0.1,0,0.1,0,0.1,0c0-0.1,0-0.1,0.1-0.1c0.1,0,0.2-0.1,0.3-0.1
		c0-0.1,0.1-0.1,0.2-0.1c0,0,0.1-0.1,0.1-0.1c0.1-0.1,0.2-0.1,0.4-0.1c0.2,0,0.3-0.1,0.4-0.1c0,0,0.1-0.1,0.1-0.1c0,0,0.1,0,0.1,0
		c0,0,0.1-0.1,0.1-0.1c0.1,0,0.3,0,0.3,0c0.3-0.1,0.4-0.1,0.7-0.1h0.1c0.1,0,0.1,0,0.2-0.1c0.1,0,0.1,0,0.7,0c0.6,0,0.7,0,0.7,0.1
		c0,0.1,0.1,0.1,0.2,0.1c0,0,0.1,0.1,0.2,0.1c0.1,0,0.3,0.1,0.3,0.1c0.1,0,0.3,0.1,0.3,0.1c0,0.1,0.2,0.1,0.3,0.1
		c0,0,0.1,0.1,0.1,0.1s0.1,0.1,0.2,0.1l0.2,0.1c0,0,0,0.1,0.1,0.1c0,0,0.1,0.1,0.2,0.1c0.1,0.1,0.1,0.1,0.2,0.1c0.1,0,0.1,0,0.1,0
		c0,0.1,0.1,0.1,0.2,0.1c0.1,0,0.2,0.1,0.2,0.1c0,0,0.1,0.1,0.2,0.1c0.2,0.1,0.3,0.3,0.3,0.4l0.1,0.1c0,0,0.4,0.4,0.4,0.4
		c0,0,0,0.1,0.1,0.2c0.1,0.1,0.1,0.2,0.1,0.3c0,0,0,0.1,0,0.1c0,0.1,0,0.1,0.1,0.1l0.1,0.1c0,0.1,0,0.1,0.1,0.3c0,0.1,0,0.3,0,0.4
		c0,0.1,0,0.1,0,0.1s0,0.1-0.1,0.1c-0.1,0.1-0.1,0.1-0.1,0.4c0,0.1,0,0.2,0,0.2c0,0.1,0,0.1,0,0.1c0,0.1,0,0.1,0,0.2v0.1
		c-0.1,0-0.1,0-0.1,0.1c0,0,0,0.1,0,0.1c0,0-0.1,0.1-0.1,0.1c0,0.1,0,0.2-0.1,0.2c-0.1,0-0.1,0-0.2,0c-0.1,0-0.1,0.1-0.1,0.1
		c0,0-0.1,0.1-0.1,0.1c0,0.1-0.1,0.1-0.1,0.1c0,0,0-0.1-0.1-0.1l0-0.1c0,0,0,0.1,0,0.1C111.3,28.2,111.3,28.3,111.2,28.3z"/>
	<path d="M129.4,44.3c-0.3-0.3-0.4-0.5-0.6-0.5l-0.1,0.1c-0.1,0-0.4-0.3-0.4-0.4c-0.3-0.6-0.3-0.3-0.3-0.9c-0.6-1.9-0.5-1.2-0.7-1.9
		c-0.2-0.8-0.3-0.8-0.3-1.1c0,0,0-0.1-0.1-0.2c0-0.3,0-0.4,0-0.4c-0.1,0-0.1-0.2-0.4-0.6c-0.4,0.4-0.7,0.8-0.7,0.8
		c-0.1,0.1-0.2,0.1-0.3,0.2c0,0.2-0.2,0.1-0.3,0.3c0,0.1-0.3,0.1-0.3,0.3c0,0.1-0.1,0.2-0.3,0.3c-0.1,0-0.2,0.1-0.2,0.1
		c-0.2,0.4-0.3,0.4-0.3,0.6c0,0.1,0,0.1-0.1,0.1c-0.2,0-0.2,0.5-0.4,0.5l-0.1,0c-0.4,0.6-1,0.6-1.1,1c-0.1,0.1-0.3,0.3-0.4,0.3
		c0,0-0.5,0.4-0.6,0.5c-0.3,0.1-0.2,0.2-0.3,0.3l-0.4-0.1c-0.2,0-0.3,0-0.3,0.1c-0.3,0.4-0.4,0.5-0.5,0.5c-0.5,0-0.4,0.1-1.5,0.1
		c-0.6,0-0.8,0-1-0.1c-0.8-0.1-0.7-0.1-1-0.2c-0.1,0-0.1-0.1-0.4-0.1c-0.1,0-0.2,0-0.3-0.1c-0.9-0.4-0.9-0.4-1.2-0.8
		c-0.2-0.1-0.3-0.4-0.3-0.4c-0.3-0.3-0.2-0.1-0.6-0.4c-0.1,0-0.1-0.2-0.3-0.2c0,0,0-0.2-0.3-0.3l-0.1-0.2c-0.1-0.3-0.3-0.3-0.3-0.6
		c0-0.1-0.3-0.9-0.3-1.6c0.2-1.1,0-1.6,0.2-2c0-0.4,0.1-0.2,0.3-1.3c0.1-0.6,0.2-0.4,0.3-0.8c0,0,0.1-0.1,0.1-0.3v-0.1
		c0.8-1.6,0.5-0.9,0.8-1.7c0-0.2,0.3-0.6,0.3-0.7c0-0.3,0.3-0.2,0.3-0.5c0-0.1,0.1-0.4,0.1-0.4c0.5-0.7,0.2-0.3,0.6-1.1l0.3-0.5
		c0,0,0.1-0.1,0.4-0.5c0.1-0.1,0.2-0.2,0.3-0.6c0.1-0.1,0.6-1,0.7-1.1c0.3-0.2,0.3-0.7,0.4-0.8c0,0,0.1,0,0.1-0.1
		c0.2-0.4,0.4-0.5,0.4-0.6c0-0.3,0.2-0.3,0.4-0.5c0.2-0.4,0.5-0.6,0.5-0.6c0-0.1,0.2-0.2,0.3-0.4c0-0.1,0-0.1,0.1-0.1
		c0.1,0,0.3-0.3,0.6-0.7c0.1-0.1,0.2-0.2,0.2-0.2c0.5-0.2,0.5-0.5,0.8-0.5c0,0,0.1,0,0.1-0.1c0-0.1,0-0.1,0.3-0.1
		c0.3,0,0.5,0,0.6-0.1c0,0,0.2-0.1,0.5-0.4L122,22l0.1,0.1c0.1,0,0.3,0,0.3-0.1c0.4,0,0.5,0.1,1.5,0.2l0.2,0.1
		c0.1,0,0.6,0.6,0.6,0.6c0,0,0.1,0.1,0.1,0.1c0.3,0.1,0.8,0.2,0.8,0.8c0,0.1,0.1,0.1,0.1,0.2v0.3c0,0.2-0.1,0.3-0.3,0.5
		c-0.2,0.1-1,0.2-1.3,0.2h-0.1c-0.6,0-1.2,0.9-1.3,0.9c-0.3,0-0.6,0.3-0.6,0.5c0,0.1-0.2,0.2-0.2,0.3c-0.8,1.1-0.5,0.7-0.7,1
		c0,0.2-0.5,0.4-0.5,0.6c0,0.1-0.5,0.6-0.5,0.7c0,0.2-0.1,0.2-0.1,0.4l0,0.1c-0.2,0.3-0.3,0.4-0.3,0.4c-0.2,0,0,0.3-0.3,0.7
		c-0.4,0.3-0.3,0.6-0.4,0.6c-0.2,0.2-0.1,0.8-0.4,0.8c-0.3,0-0.4,0.5-0.4,0.5l-0.2,0.5c0,0.6-0.5,1-0.6,1.6c0,0.1-0.1,0.4-0.1,0.5
		c-0.8,1.5-0.5,1-0.7,1.5c0,0-0.1,0.1-0.1,0.4c0,0.4-0.1,0.4-0.2,0.8l-0.2,0.6c0,0.1-0.1,0.1-0.1,0.3v0.3c0,0.2,0,0.5-0.1,0.6
		c0,0.3,0,0.3,0.1,0.5l0,0.2l0-0.1l0.3,0.1c0.5,0,0.7-0.3,0.8-0.3c0.2,0,0.1-0.1,0.4-0.3c0.3-0.1,0.8-0.5,0.8-0.5
		c0.4-0.2,0.2-0.1,0.5-0.3l0.4-0.3c0.2,0,0.1-0.3,0.4-0.4c0.4-0.1,0.5-0.5,0.6-0.5l0.9-0.8c0.2,0,0.4-0.2,0.5-0.2l0.1,0.1
		c0.1,0,0.4-0.2,0.5-0.7c0.1,0,0.5-0.3,0.5-0.3c0.1,0,0.5-0.7,0.8-0.7c0.2-0.3,0.8-0.8,1.6-1.9c0.2-0.2,0.1-0.3,0.2-0.3
		c0.1-0.1,0.1-0.2,0.1-0.4v-3.7c0-0.9,0-0.7,0-1.1l0-0.5c0-0.1,0.1-0.4,0.1-1.8c0.1-0.4,0,0.2,0.3-1.7c0,0,0.1-0.8,0.5-1.1
		c0,0,0.2-0.1,0.4-0.1l0.3,0.1c0.7,0,0.4-0.4,0.7-0.4c0,0,0.1,0.1,0.1,0.2c0,0.1,0,0.1,0.4,0.1c0.1,0,0.2,0.3,0.4,0.3
		c0,0,0.1,0,0.1,0.1c0.1,0.1,0.7,0.3,0.8,0.5c0,0.1,0.1,0.2,0.4,0.2c0.1,0,0.6,0.7,0.7,0.8c0.1,0.1,0.1,0.4,0.2,0.6
		c0.1,0.2,0.2,0.7,0.2,1.2c0,0.2-0.1,0.3-0.1,0.4c0,0.1,0,0.2-0.1,0.3l0,0.2l0.1,0.3c-0.1,0.5-0.1,2.2-0.3,2.2c0,0,0,0.2,0,0.5
		l-0.1,0.8l0,0.4c0,0.1-0.1,0-0.1,0.4c0,2.1,0,1.7-0.1,2.2l0,0.2l0,0.3V35c0.1,0.2,0.1,0.1,0.1,0.3c-0.1,0.3,0,0.2-0.1,0.5
		c0.1,0.5,0.1,0.6,0.1,1.1v0.3l0.1,0.4l-0.1,0.4l0.1,0.3l-0.1,0.1c0.1,0.1,0.3,0.5,0.3,1.2c0,1.2,0.2,1.6,0.2,2.2
		c0,0.7,0,0.6,0.1,0.9c0,0,0,0-0.1,0h0c-0.1,0-0.2,0-0.2,0.1v0.1c0,0.2-0.1,0.7-0.2,0.8c-0.1,0-0.3,0.3-0.3,0.3
		c-0.3,0-0.1,0.2-0.3,0.2l-0.1-0.1l-0.3,0.1l-0.1,0.1C129.6,44.6,129.4,44.5,129.4,44.3z"/>
	<path d="M154.3,20.6c0,0,0,0.2,0,0.3c0,0.5,0,0.6-0.1,0.7c0,0.1,0,0.1-0.1,0.1l-0.1,0.1c0,0.1,0,0.1,0,0.1c0,0,0,0,0,0.1
		c0,0,0,0.1,0,0.1s0,0,0,0c0,0.1,0,0.1-0.1,0.2c-0.1,0.1-0.1,0.1-0.1,0.2c0,0.1,0,0.1,0,0.1c0,0.1,0,0.1-0.1,0.2
		c0,0.2-0.1,0.4-0.1,0.5l0,0.1c0,0.2-0.1,0.4-0.2,0.5c0,0.1-0.1,0.1-0.1,0.2l0,0.1c-0.1,0-0.2,0.2-0.2,0.4c-0.1,0.1-0.1,0.1-0.1,0.1
		c0,0,0,0,0,0.1s0,0.1-0.1,0.2c0,0.1-0.1,0.2-0.1,0.2s-0.1,0.4-0.3,0.4c0,0.1,0,0.1,0,0.1c0,0,0,0.1,0,0.1c0,0.1,0,0.1,0,0.1
		c0,0.1-0.1,0.2-0.1,0.3c-0.1,0.2-0.2,0.4-0.2,0.5c0,0.1,0,0.1-0.1,0.2c-0.1,0.1-0.1,0.2-0.1,0.2v0.1c0,0,0,0-0.1,0
		c0,0.1,0,0.1,0,0.2c-0.1,0-0.1,0.1-0.1,0.2c0,0.1,0,0.2-0.1,0.3c-0.1,0.1-0.1,0.1-0.1,0.3c0,0.1-0.1,0.2-0.1,0.3
		c-0.1,0.2-0.3,0.5-0.3,0.7c0,0.1-0.1,0.2-0.1,0.2v0.1c0,0.1-0.1,0.1-0.1,0.2c-0.1,0-0.2,0.4-0.2,0.5l0,0.1c0,0,0.1-0.1,0.1-0.1
		l0-0.1v0c0,0.1,0,0.1,0,0.2c-0.1,0.1-0.1,0.2-0.1,0.2v0.1c-0.1,0-0.2,0.3-0.2,0.5c0,0,0,0-0.1,0c0,0-0.4,0.7-0.4,0.8c0,0,0,0,0,0
		c0,0,0,0.1-0.1,0.3c0,0.1-0.2,0.3-0.2,0.3l0,0c0,0-0.1,0.1-0.1,0.2c0,0.1-0.1,0.2-0.1,0.3s-0.2,0.5-0.4,0.7
		c-0.1,0.1-0.1,0.1-0.1,0.2c0,0,0,0.1-0.1,0.1c-0.1,0-0.1,0.1-0.1,0.2c0,0.1,0,0.2-0.1,0.2c0,0,0,0.1,0,0.2c0,0.1-0.1,0.2-0.1,0.2
		c0,0-0.2,0.2-0.4,0.5c0,0.1-0.1,0.1-0.1,0.2c-0.1,0.1-0.1,0.1-0.1,0.1c0,0.1,0,0.1,0,0.1l-0.1,0.1c0,0.1,0,0.2-0.1,0.2
		c0,0-0.1,0.1-0.1,0.2l0,0c0,0-0.1,0.1-0.1,0.1c0,0,0,0.1,0,0.1s-0.1,0-0.1,0.1c-0.1,0-0.1,0.1-0.1,0.1l-0.1,0.1v0.1
		c0,0.1,0,0.2-0.1,0.2c-0.1,0-0.1,0.1-0.1,0.1c0,0.2-0.1,0.4-0.3,0.6c0,0.1,0,0.1,0,0.1c0,0,0,0.1-0.1,0.1c-0.1,0.1-0.2,0.4-0.2,0.5
		c0,0.1,0,0.1-0.1,0.1c-0.1,0.1-0.3,0.3-0.3,0.4c0,0-0.1,0.2-0.1,0.3c-0.1,0.1-0.1,0.1-0.1,0.2c0,0,0,0.1-0.1,0.1
		c-0.1,0-0.1,0.1-0.1,0.1c0,0.1,0,0.1-0.1,0.1c0,0,0,0,0,0.1c0,0,0,0.1-0.1,0.1c0,0.1,0,0.1,0,0.2c0,0,0,0-0.1,0
		c0,0.1-0.1,0.1-0.1,0.1c0,0.1,0,0.1-0.1,0.1c0,0-0.1,0-0.1,0c0,0.1,0,0.1,0,0.1c0,0-0.1,0-0.1,0c0,0.1-0.1,0.1-0.2,0.2
		c0,0.1-0.2,0.1-0.3,0.2c-0.1,0.1-0.2,0.2-0.3,0.2c0,0,0,0,0,0c0,0,0,0.1-0.1,0.1c0,0-0.1,0.1-0.1,0.1c0,0.1,0,0.1-0.1,0.1
		c0,0,0,0,0,0.1c-0.1,0.1-0.1,0.1-0.1,0.1c-0.1,0-0.1,0-0.1,0.1c0,0,0,0-0.1,0c-0.1,0-0.3,0.1-0.3,0.1c0,0-0.1,0-0.3,0
		c-0.1,0.1-0.4,0.1-0.5,0.1h-0.9c-0.1,0-0.1,0-0.1-0.1c0,0-0.2,0-0.3-0.1c-0.3,0-0.4,0-0.7-0.2c0,0-0.2-0.1-0.2-0.1
		c-0.1-0.1-0.1-0.1-0.1-0.1v0c-0.1,0-0.1-0.1-0.1-0.1c0-0.1-0.2-0.1-0.2-0.1c-0.1,0-0.1,0-0.1-0.1c0,0-0.2,0-0.2-0.1
		c-0.1,0-0.1-0.1-0.3-0.2c0-0.1,0-0.1-0.1-0.1c-0.1,0-0.3-0.2-0.3-0.3c0-0.1,0-0.1-0.1-0.1c0,0-0.1-0.1-0.1-0.1
		c0-0.1-0.1-0.1-0.2-0.1c0,0-0.1-0.1-0.1-0.2c-0.3-0.3-0.4-0.5-0.5-0.7c-0.1,0-0.1-0.1-0.1-0.1l-0.1-0.1c0-0.1-0.1-0.1-0.1-0.1
		c0,0,0,0,0,0c0-0.1-0.2-0.5-0.2-0.5c0-0.1,0-0.1-0.1-0.1c0,0,0,0,0-0.1c0,0,0-0.1,0-0.1v-0.1c0-0.1,0-0.1,0-0.1
		c-0.1,0-0.1-0.5-0.1-0.6v-0.1c-0.1,0-0.1,0-0.1-0.1c0-0.1,0-0.1,0-0.2c0,0,0,0,0-0.1v-0.1c0,0-0.1-0.3-0.1-1.1c0-0.2,0-0.4,0-0.4
		v-0.2c0-0.1,0-0.1,0-0.2c-0.1,0-0.1-0.6-0.1-1.2v-0.8c0-0.3-0.1-1-0.1-1.2c0,0,0-0.1-0.1-0.2l0-0.1l0-0.1c0-0.1,0-0.1,0-0.2
		c0-0.1,0-0.2-0.1-0.3c0,0,0-0.1,0-0.2l0.1-0.1l-0.1-0.2c-0.1-0.1-0.1-0.2-0.1-0.2c0,0,0-0.1,0-0.1c0.1,0,0.1-0.1,0.1-0.2v-0.4
		c-0.1-0.1-0.1-0.1-0.1-0.2c0-0.1,0-0.1,0-0.1v-0.5c0,0,0-0.1,0-0.1c0-0.1,0-0.1,0-0.1c0-0.1,0-0.1,0-0.1v-0.3c0-0.1,0-0.2,0-0.3
		c0-0.1-0.1-0.2-0.1-0.2l0-0.1l0,0v-0.1c0,0,0-0.1,0-0.2c0-0.1,0-0.3,0-0.3v-0.1c0-0.1,0-0.2,0-0.2c0-0.1,0-0.1,0-0.1v-0.4
		c0,0-0.1,0-0.1-0.1c0,0-0.1-0.1-0.1-0.2l-0.1-0.1h0c0-0.1,0-0.1,0-0.1c0-0.1,0-0.1,0-0.1s0-0.1,0-0.1c0,0-0.1-0.1-0.1-0.1
		c0-0.1-0.1-0.1-0.1-0.2s0-0.2,0-0.2v0l0.1-0.1c0,0,0.1,0.1,0.1,0.1c0,0,0.2,0,0.3-0.1c0,0,0.1,0,0.1-0.1c0-0.1,0-0.1,0.1-0.2
		c0.1-0.1,0.1-0.1,0.2-0.1h0.1c0,0,0.1,0,0.1,0h0c0,0,0.1-0.1,0.1-0.1c0-0.1,0.1-0.1,0.1-0.1c0.1,0,0.3,0.1,0.3,0.2l0.1,0.1h0.2
		c0,0,0.2,0,0.3,0c0.1,0,0.2,0.1,0.2,0.1h0.1c0,0,0.1,0,0.1,0.1c0,0,0.1,0.1,0.2,0.2l0.2,0.1c0,0.1,0.4,0.3,0.5,0.3
		c0,0,0.2,0.1,0.2,0.2c0,0,0.1,0.1,0.1,0.1c0,0,0.1,0.1,0.1,0.1c0,0,0,0.1,0,0.1c0,0,0.2,0.2,0.2,0.2c0,0,0,0.2,0.1,0.2
		c0,0.2,0.1,0.4,0.1,0.8c0.1,0.2,0.1,0.4,0.1,0.4c0,0,0,0.1,0,0.2c0,0.1,0,0.3,0,0.4c0.1,0.1,0.1,0.1,0.1,0.2c0,0.1,0,0.1,0,0.1V29
		c0,0.1,0,0.4,0,0.6s0,0.4,0,0.4c0,0.1,0,0.3-0.1,0.3c-0.1,0-0.1,0.1-0.1,0.1c0,0.1,0.1,0.1,0.1,0.1c0,0.1,0,0.1,0,1
		c0,1.2,0,1.6,0.1,1.6c0,0,0,0.1,0,0.2c0,0.1,0,0.1,0,0.7v0.6c0,0.1,0,0.1,0.1,0.2c0,0.1,0,0.2,0,0.4c0,0.2,0,0.4,0,0.4v0.5
		c0,0.3,0,0.8,0,0.9c0,0,0.1,0.1,0.1,0.2c0,0.4,0,0.7,0.1,0.7v0.2c0,0.2,0,0.2,0,0.2c0,0.1,0,0.1,0,0.4c0,0.2,0,0.4,0,0.4
		c0,0,0.1,0.1,0.1,0.2c0,0.1,0,0.2,0.1,0.2c0,0.1,0.1,0.2,0.1,0.2c0,0.1,0,0.2,0.1,0.2c0,0,0,0,0.1-0.1c0,0,0.1,0,0.1,0
		c0.1,0,0.3,0,0.3-0.1c0-0.1,0.1-0.1,0.2-0.1c0-0.1,0-0.1,0.1-0.1c0.1,0,0.1,0,0.1-0.1c0,0,0,0,0-0.1c0,0,0,0,0,0.1
		c0,0,0.1-0.1,0.1-0.1c0-0.1,0.1-0.2,0.2-0.3c0.1-0.1,0.2-0.2,0.2-0.3c0-0.1,0-0.2,0.1-0.2l0.1-0.1c0-0.1,0-0.1,0.1-0.1
		c0,0,0-0.1,0-0.1c0-0.1,0-0.1,0.1-0.1c0.1-0.1,0.2-0.3,0.2-0.4c0,0,0.1-0.1,0.2-0.1c0-0.1,0.1-0.1,0.1-0.2l0.1-0.2
		c0.1,0,0.1,0,0.1-0.1h0c0,0,0.2-0.3,0.2-0.4l0,0c0.1-0.1,0.3-0.3,0.3-0.5c0-0.1,0.1-0.1,0.1-0.1c0.1,0,0.1,0,0.1,0
		c0-0.1,0-0.1,0.1-0.2c0,0,0.1,0,0.1-0.1c0,0,0-0.1,0-0.1v-0.1l0.1-0.1c0,0,0-0.1,0-0.1c0,0,0-0.1,0.1-0.1c0,0,0.1-0.1,0.1-0.1
		c0-0.1,0-0.1,0-0.1s0,0,0-0.1c0,0,0-0.2,0.1-0.2c0,0,0-0.1,0-0.1c0,0,0.1,0,0.1-0.1c0,0,0.1,0,0.1-0.1v-0.1c0,0,0.1-0.1,0.1-0.1
		c0-0.1,0-0.1,0.1-0.2c0.1,0,0.1-0.1,0.1-0.1l0-0.1c0,0,0.1-0.1,0.2-0.3c0-0.1,0-0.2,0.1-0.2c0,0,0.1-0.1,0.2-0.2
		c0-0.2,0.1-0.3,0.2-0.3c0,0,0,0,0-0.1c0,0,0.1-0.1,0.1-0.2c0,0,0.1-0.1,0.1-0.2c0-0.1,0-0.1,0.1-0.2c0.1-0.1,0.1-0.1,0.1-0.3
		c0-0.1,0-0.1,0-0.2c0.1,0,0.1,0,0.1-0.1v-0.1c0,0,0,0,0,0c0-0.1,0.1-0.1,0.1-0.2c0.1-0.1,0.1-0.2,0.1-0.2c0-0.1,0-0.1,0-0.2
		c0.1-0.1,0.1-0.2,0.1-0.3c0,0,0-0.1,0.1-0.2c0,0,0-0.1,0-0.1c0,0,0-0.1,0.1-0.2l0.1-0.1c0.1-0.4,0.3-0.9,0.4-1
		c0.1-0.1,0.1-0.1,0.1-0.2c0,0,0,0,0-0.1c0,0,0.3-0.3,0.3-0.4c0-0.1,0-0.1,0-0.2c0-0.1,0-0.1,0.1-0.2c0-0.1,0-0.1,0.1-0.2
		c0.1-0.1,0.2-0.2,0.2-0.2v-0.1c0,0,0.1-0.1,0.1-0.1c0,0,0-0.1,0.1-0.1c0-0.2,0-0.3,0.1-0.4c0,0,0.1-0.2,0.1-0.3
		c0-0.1,0-0.2,0.1-0.3c0.1-0.1,0.1-0.2,0.1-0.3c0-0.1,0.1-0.1,0.1-0.2c0,0,0.1-0.1,0.1-0.3c0.1-0.1,0.2-0.3,0.2-0.4
		c0,0,0.1-0.1,0.1-0.1c0,0,0-0.1,0.1-0.2c0-0.1,0.1-0.2,0.1-0.3c0.1-0.2,0.2-0.3,0.2-0.4c0-0.1,0-0.1,0-0.1v-0.1
		c0-0.1,0-0.1,0.1-0.1c0.1-0.1,0.1-0.1,0.1-0.2c0-0.1,0.3-0.6,0.3-0.6c0,0,0-0.1,0-0.1c0-0.2,0-0.2,0.1-0.2c0.1,0,0.1-0.1,0.1-0.1
		c0-0.1,0.1-0.1,0.2-0.2c0,0,0.1-0.1,0.1-0.1l0.1-0.1c0,0,0,0,0-0.1c0,0,0.1-0.1,0.1-0.1l0.1-0.2c0,0,0.1-0.2,0.3-0.3
		c0.1-0.1,0.1-0.2,0.1-0.2c0-0.1,0.1-0.1,0.1-0.1c0,0,0.1-0.1,0.2-0.2c0,0,0.1-0.1,0.2-0.1c0-0.1,0.1-0.1,0.1-0.1
		c0,0,0.3-0.3,0.3-0.3c0,0,0.1-0.1,0.1-0.2c0,0,0.1-0.1,0.2-0.1c0,0,0.1-0.1,0.1-0.1c0-0.1,0.1-0.1,0.1-0.1c0.1,0,0.1,0.1,0.2,0.2
		c0,0.1,0,0.2,0,0.2c0.1,0,0.1-0.1,0.1-0.1c0-0.1,0-0.1,0-0.1h0c0,0.1,0.1,0.1,0.2,0.1h0.1c0,0,0,0,0.1,0v0.1c0,0.1,0.2,0.3,0.2,0.3
		c0.1,0,0.1,0.1,0.1,0.1v0.1c0.1,0,0.1,0.2,0.1,0.4c0,0.1,0,0.1,0,0.1c0,0,0.1,0.1,0.1,0.1v0.1L154.3,20.6z"/>
	<path d="M175.5,31.9L175.5,31.9c0,0.1,0,0.1-0.1,0.1l-0.1,0c0,0.1-0.1,0.1-0.2,0.1c-0.1,0.1-0.2,0.2-0.2,0.2s0,0.1,0.1,0.1
		c0.1,0,0.1,0,0.1,0.1c0,0.1-0.1,0.3-0.2,0.5c-0.1,0.1-0.1,0.1-0.1,0.2c0,0.1,0,0.1-0.1,0.1c0,0,0,0.1,0,0.1c0,0.1,0,0.1,0,0.1
		l0.1,0.1c0,0,0,0.1-0.1,0.1c0,0-0.2,0.2-0.2,0.3c-0.1,0.1-0.2,0.2-0.3,0.2c-0.1,0-0.1,0.1-0.1,0.2c0,0,0,0.1,0.1,0.2l0.1,0.1
		l-0.2,0.1c-0.1,0.1-0.2,0.1-0.2,0.1c0,0-0.1,0.1-0.1,0.2c-0.1,0.1-0.2,0.3-0.3,0.3c-0.4,0.4-0.6,0.6-0.6,0.7c0,0,0,0.1-0.1,0.1
		c0,0-0.2,0.1-0.3,0.2c-0.1,0.1-0.3,0.2-0.4,0.2c-0.1,0.1-0.3,0.2-0.3,0.2c0,0.1,0,0.1-0.1,0.1c0,0.1-0.1,0.1-0.1,0.1
		c0,0,0.1,0,0.1,0c0,0,0.1,0,0.1-0.1c0,0,0-0.1,0.1-0.1c0,0,0,0,0,0.1v0c0,0.1,0,0.1-0.1,0.1c-0.1,0.2-0.5,0.4-0.5,0.4
		c0,0-0.1,0.1-0.1,0.1c0,0.1-0.1,0.1-0.2,0.2c-0.1,0.1-0.2,0.1-0.2,0.2c0,0-0.1,0.1-0.1,0.1c-0.1,0-0.3,0.1-0.4,0.2
		c-0.1,0.1-0.1,0.1-0.2,0.1c0,0,0,0.1,0,0.1v0.1l0,0c0,0,0,0.1,0,0.1c0,0-0.1,0.1-0.2,0.2c0,0-0.1,0.1-0.1,0.1l0-0.1
		c0,0,0,0.1,0,0.1c0,0,0,0.1-0.1,0.1c-0.1,0-0.2,0.1-0.5,0.3c0,0-0.1,0.1-0.1,0.1c0,0,0,0,0,0c0,0-0.1,0.1-0.2,0.1
		c-0.1,0.1-0.1,0.1-0.1,0.2c0,0-0.1,0.1-0.2,0.1c-0.1,0-0.2,0.1-0.2,0.1c-0.1,0.1-0.3,0.3-0.4,0.3c0,0-0.1,0.1-0.2,0.2
		c-0.1,0-0.2,0.1-0.3,0.1c0,0,0,0.1-0.1,0.1c0,0.1-0.4,0.2-0.5,0.2c-0.1,0-0.1,0-0.2,0.1c0,0-0.1,0.1-0.1,0.1
		c-0.1,0-0.1,0.1-0.2,0.2c-0.1,0.1-0.1,0.1-0.2,0.2c0,0-0.1,0-0.1,0c0,0.1,0,0.1-0.1,0.1c0,0-0.1,0-0.1,0c0,0.1,0,0.1-0.1,0.1
		s-0.1,0-0.1,0c0,0.1-0.3,0.1-0.6,0.2c-0.1,0-0.1,0.1-0.2,0.1c0,0,0,0-0.1,0c0,0-0.1,0.1-0.2,0.1c0,0-0.2,0.1-0.3,0.1
		c-0.2,0-0.3,0.1-0.5,0.2c0,0-0.2,0-0.4,0s-0.3,0.1-0.4,0.1c-0.1,0-0.2,0-0.4,0c-0.1,0-0.2,0-0.3,0.1c0,0-0.1,0.1-0.1,0.1
		c-0.1,0-0.1-0.1-0.1-0.1h-0.3c-0.1,0.1-0.3,0.1-0.6,0.1h-0.5c-0.1,0-0.3-0.1-0.3-0.1l0-0.1l0,0.1c0,0.1-0.1,0.1-0.2,0.1
		c-0.1-0.1-0.3-0.1-0.4-0.1c-0.1,0-0.1,0-0.2-0.1c0,0-0.1,0-0.1,0h-0.1c-0.1,0-0.1,0-0.1-0.1c0,0,0-0.1-0.1-0.1
		c-0.1-0.1-0.3-0.1-0.5-0.1c0-0.1-0.1-0.1-0.2-0.1c-0.1,0-0.2-0.1-0.3-0.1c-0.1-0.1-0.1-0.1-0.2-0.1c0,0-0.1,0-0.2-0.1
		c-0.1-0.1-0.1-0.1-0.2-0.1c0,0-0.1,0-0.1-0.1c0,0,0,0-0.1,0c0,0-0.1-0.1-0.1-0.1c-0.1-0.2-0.1-0.2-0.4-0.4
		c-0.2-0.1-0.3-0.1-0.3-0.2c0,0-0.1,0-0.2-0.1c-0.1,0-0.1-0.1-0.1-0.1c0,0-0.1-0.1-0.2-0.1c-0.1-0.1-0.2-0.2-0.3-0.4
		c0-0.1-0.1-0.2-0.2-0.2c-0.1-0.1-0.5-0.8-0.5-0.9c0,0,0-0.1,0-0.1c-0.1,0-0.1-0.1-0.1-0.2c0-0.1-0.1-0.2-0.1-0.3
		c-0.1,0-0.1-0.1-0.1-0.1c0,0,0.1-0.1,0.1-0.1c0-0.1-0.1-0.2-0.1-0.3c0-0.1-0.1-0.2-0.1-0.2c0,0,0-0.1,0.1-0.1c0-0.1,0-0.2-0.1-0.3
		c0,0-0.1-0.1-0.1-0.2c0-0.1,0-0.2,0-0.4c-0.1-0.1-0.1-0.2-0.1-0.3c0-0.1,0-0.2,0.1-0.3c0-0.3,0-0.3-0.1-0.6v-0.3
		c0.1-0.1,0.1-0.1,0.1-0.2v-0.3c0.1-0.1,0.1-0.6,0.1-0.9c0-0.1,0-0.1,0.1-0.2c0-0.1,0.1-0.3,0.1-0.9c0-0.2,0.1-0.4,0.1-0.5
		c0.1-0.1,0.3-0.6,0.3-0.8c0-0.1,0.1-0.4,0.2-0.6c0,0,0.1-0.2,0.1-0.2c0-0.1,0-0.2,0-0.2c0,0,0.1-0.2,0.1-0.3c0-0.2,0.1-0.4,0.3-0.8
		c0.2-0.4,0.3-0.5,0.4-0.6c0-0.1,0.1-0.1,0.1-0.2c0,0,0-0.1,0.1-0.1c0-0.1,0-0.1,0-0.1s0.1-0.2,0.1-0.3c0.1-0.1,0.2-0.2,0.2-0.3
		c0-0.1,0-0.1,0-0.1c0.1,0,0.3-0.4,0.4-0.5c0,0,0-0.1,0-0.2c0.1-0.2,0.1-0.3,0.1-0.3s0-0.1,0.1-0.1c0-0.1,0.1-0.1,0.1-0.1l0-0.1
		c0,0,0.1,0,0.1,0c0-0.1,0-0.1,0.1-0.2c0.1-0.2,0.3-0.4,0.3-0.5c0-0.1,0.1-0.2,0.2-0.3c0-0.1,0.1-0.2,0.1-0.2c0,0,0,0,0.1,0
		c0.1-0.1,0.1-0.1,0.1-0.2c0-0.1,0-0.1,0.1-0.2c0.3-0.3,0.4-0.5,0.5-0.6c0-0.1,0.1-0.1,0.1-0.1c0.1-0.1,0.1-0.1,0.1-0.1
		c0-0.1,0.1-0.1,0.1-0.1c0-0.1,0.1-0.2,0.1-0.2c0-0.1,0.4-0.4,0.7-0.5c0-0.1,0.1-0.1,0.1-0.2c0.1-0.1,0.3-0.1,0.4-0.1h0.1
		c0,0,0,0,0-0.1c0-0.1,0.3-0.2,0.4-0.2h0.1c0,0,0.1-0.1,0.2-0.1c0.1-0.1,0.3-0.2,0.6-0.2h0.3c0.4-0.1,0.6-0.1,0.7-0.1
		c0.1,0,0.1,0,0.2,0.1c0.1,0,0.3,0.1,0.4,0.1c0.1,0,0.3,0.1,0.3,0.1h0.3c0,0,0.1,0,0.2,0c0.1,0.1,0.2,0.1,0.3,0.1
		c0.2,0.1,0.5,0.3,0.5,0.3c0,0.1,0.1,0.2,0.3,0.3c0.1,0,0.3,0.1,0.3,0.1c0,0.1,0.1,0.1,0.1,0.1c0,0,0.1,0.1,0.1,0.1
		c0.1,0.1,0.1,0.2,0.1,0.2c0.1,0.1,0.4,0.5,0.4,0.5c0,0,0,0.1,0.1,0.1c0.1,0.1,0.1,0.2,0.1,0.4c0,0.1,0.1,0.3,0.1,0.3
		c0,0,0.1,0.3,0.1,0.6c0,0.4-0.1,0.9-0.1,1.2c0,0.2-0.1,0.4-0.1,0.4l-0.1,0.3c0,0.1,0,0.3,0,0.3c0,0,0,0.1,0,0.1c0,0,0,0.1,0,0.1
		c-0.1,0-0.2,0.2-0.2,0.4c0,0,0,0.2-0.1,0.3c-0.1,0.1-0.1,0.2-0.1,0.3c0,0.1-0.1,0.2-0.1,0.2c-0.1,0-0.1,0.1-0.1,0.2
		c0,0.1-0.1,0.1-0.1,0.1s0,0.1,0,0.1c0,0.1,0,0.2-0.1,0.2c-0.2,0.2-0.3,0.5-0.3,0.6c0,0,0,0.1,0,0.1c-0.1,0-0.1,0.1-0.1,0.1
		c0,0.1-0.1,0.1-0.2,0.2c-0.1,0.1-0.1,0.2-0.1,0.2c0,0.1,0,0.2-0.1,0.2c-0.1,0-0.1,0.1-0.1,0.1c0,0.1,0,0.1-0.1,0.1
		c0,0-0.1,0-0.1,0.1c0,0,0,0.1-0.1,0.1c0,0-0.1,0.1-0.1,0.1c0,0.1-0.1,0.3-0.2,0.4L163,33c-0.2,0.2-0.5,0.5-0.5,0.5l-0.1,0.1
		c0,0-0.1,0.1-0.2,0.1c-0.1,0-0.1,0.1-0.2,0.1c0,0,0,0.1-0.1,0.1c0,0-0.1,0-0.1,0.1c0,0,0,0.1,0,0.1h0c-0.1,0-0.3,0.1-0.4,0.2
		c0,0.1-0.1,0.1-0.2,0.1c0,0-0.1,0-0.1,0c0-0.1,0-0.1-0.1-0.1c0,0,0,0-0.1,0.1c0,0,0,0-0.1,0c0,0-0.1,0-0.2,0c0-0.1-0.2-0.1-0.3-0.1
		c-0.1,0-0.1,0-0.2-0.1c0,0-0.1-0.1-0.1-0.1c-0.1,0-0.3-0.2-0.3-0.2c0,0-0.1-0.1-0.1-0.1c0-0.1,0-0.1,0-0.1c0,0,0,0-0.1,0
		c0,0,0-0.1-0.1-0.1c0-0.1,0-0.1-0.1-0.1c0,0-0.1-0.1-0.1-0.1c0-0.1,0-0.1-0.1-0.1h0c0,0.1,0,0.1-0.1,0.1c0,0-0.1,0-0.1-0.1
		c0-0.1,0-0.1-0.1-0.1c0-0.1-0.1-0.1-0.1-0.1c0,0,0,0,0.1-0.1c0-0.1,0.1-0.2,0.1-0.2v-0.1c0-0.1,0-0.1,0-0.1c0-0.1,0.2-0.1,0.3-0.1
		c0.1,0,0.3-0.2,0.4-0.4c0-0.1,0.1-0.2,0.1-0.2c0,0,0,0,0,0c0-0.1,0.1-0.2,0.2-0.3c0.4-0.5,0.7-0.8,0.7-1.1c0,0,0.1,0,0.1-0.1
		c0,0,0.1,0,0.1-0.1c0-0.1,0-0.2,0.1-0.2c0.1-0.1,0.3-0.3,0.3-0.3s0-0.1,0.1-0.2c0.1-0.1,0.1-0.2,0.1-0.2c0,0,0-0.1,0.1-0.2
		c0-0.1,0.1-0.2,0.1-0.2c0-0.1,0.1-0.3,0.2-0.5c0.1,0,0.1-0.1,0.1-0.2c0-0.1,0-0.2,0.1-0.3c0.2-0.3,0.4-1,0.5-1.2
		c0-0.1,0.1-0.2,0.1-0.2c0-0.1,0-0.2,0-0.4c0-0.2,0-0.4,0-0.4c0,0-0.3,0.1-0.4,0.2c-0.1,0.1-0.2,0.1-0.2,0.1c-0.1,0-0.2,0.1-0.2,0.1
		c0,0.1-0.1,0.1-0.1,0.1c-0.1,0.1-0.3,0.3-0.3,0.3c0,0,0,0.1-0.1,0.1c-0.1,0-0.3,0.3-0.4,0.5l-0.1,0.1c-0.1,0-0.3,0.2-0.3,0.3
		c0,0-0.1,0.1-0.2,0.1c0,0.1-0.1,0.2-0.1,0.2c0,0,0,0.1-0.1,0.1c-0.1,0-0.1,0.1-0.1,0.1c0,0.1,0,0.2-0.1,0.3
		c-0.1,0.1-0.1,0.2-0.1,0.2s-0.1,0.1-0.1,0.1l-0.1,0.2c0,0,0,0.1-0.1,0.2c-0.1,0.1-0.1,0.2-0.2,0.3c0,0.1-0.1,0.2-0.2,0.3
		c0,0,0,0.1,0,0.1v0.1c0,0,0,0.1,0,0.1c-0.1,0-0.1,0-0.1,0.1c0,0,0,0.1-0.1,0.1c-0.1,0-0.1,0.1-0.1,0.4c0,0.3-0.1,0.7-0.2,0.7
		c-0.1,0-0.3,0.4-0.3,0.6c0,0.1-0.1,0.2-0.1,0.3c0,0.1,0,0.1,0,0.1c0,0.1,0,0.2-0.1,0.2l-0.1,0.3c0,0.1-0.1,0.1-0.1,0.1
		c0,0,0,0.1,0,0.1c0,0,0,0.1-0.1,0.1l0,0.1l0,0.1c0.1,0.1,0.1,0.1,0.1,0.2c0,0.1-0.1,0.3-0.1,0.4c0,0.1,0,0.2,0,0.3c0,0,0,0.1,0,0.1
		c0,0,0,0.1,0,0.1c0,0,0,0.1-0.1,0.1c-0.1,0-0.2,0.3-0.2,0.5c0,0.1,0,0.1-0.1,0.1v0.1c0,0,0,0.1,0,0.1c0,0,0,0.1,0,0.2v0
		c0,0.1-0.1,0.3-0.1,0.6c0,0,0,0.4,0,0.8c0,0.3,0,0.6,0,0.7c0,0,0,0.2,0,0.3v0.3c0,0.2,0,0.2,0.1,0.5v0.3c0,0.1,0,0.2,0,0.2
		c0,0.1,0.1,0.2,0.1,0.3c0,0.1,0.1,0.3,0.1,0.4c0,0,0.1,0.1,0.1,0.1c0,0.1,0.1,0.2,0.4,0.2c0.2,0,0.4,0.1,0.6,0.1
		c0.1,0,0.2,0.1,0.3,0.1c0,0,0.1,0,0.1-0.1c0,0,0.3,0,0.4,0c0.1,0,0.3,0,0.3-0.1c0,0,0,0,0.1,0c0.1,0,0.1,0,0.1,0l0.1,0.1l0.2-0.1
		c0.1,0,0.3-0.1,0.5-0.1c0.3,0,0.3,0,0.4-0.1c0,0,0.1-0.1,0.2-0.1c0,0,0.1-0.1,0.3-0.1c0,0,0.2-0.1,0.3-0.1c0.1,0,0.1-0.1,0.3-0.1
		c0,0,0.1-0.1,0.1-0.1c0,0,0.1-0.1,0.1-0.1c0,0,0.2-0.1,0.4-0.2c0.2,0,0.3,0,0.4-0.1c0.1,0,0.2-0.1,0.4-0.2c0.1,0,0.3-0.1,0.4-0.3
		l0.3-0.1c0,0,0.1-0.1,0.2-0.2c0.1-0.1,0.1-0.1,0.2-0.1c0.1,0,0.4-0.2,0.6-0.4l0.3-0.2c0,0,0,0,0,0c0-0.1,0-0.1,0.1-0.1
		c0-0.1,0.2-0.1,0.2-0.2c0.1-0.1,0.2-0.1,0.3-0.1c0,0,0.1-0.1,0.1-0.1c0.2-0.2,0.4-0.3,0.5-0.4c0.1,0,0.2-0.1,0.2-0.1
		c0,0,0.1-0.1,0.2-0.2c0.1,0,0.2-0.1,0.2-0.1c0.1-0.1,0.2-0.1,0.2-0.1c0-0.1,0.2-0.3,0.3-0.3l0.1-0.1c0.1-0.1,0.3-0.1,0.3-0.1
		c0,0,0.1,0,0.1-0.1c0,0,0.1-0.1,0.2-0.2c0.1,0,0.1-0.1,0.1-0.2l0.1-0.1c0,0,0.1-0.1,0.3-0.1c0-0.1,0.1-0.1,0.2-0.1l0.2-0.3
		c0-0.1,0.1-0.1,0.2-0.1c0.1,0,0.1-0.1,0.1-0.1c0-0.1,0.1-0.1,0.3-0.1c0.1,0,0.1-0.1,0.2-0.1c0,0,0.1-0.1,0.1-0.1c0,0,0.1,0,0.1-0.1
		c0-0.1,0.1-0.2,0.3-0.2l0.2-0.2c0,0,0-0.1,0.1-0.1c0.1,0,0.1-0.1,0.1-0.1c0-0.1,0.2-0.3,0.3-0.3v-0.1c0-0.1,0.3-0.2,0.6-0.3
		c0.4-0.1,0.7-0.1,0.8-0.3c0.1-0.1,0.1-0.1,0.1-0.1c0.1,0,0.1-0.1,0.1-0.1c0.1-0.1,0.5-0.3,0.5-0.3s0.1-0.1,0.3-0.1
		c0.1-0.1,0.2-0.2,0.3-0.2c0,0,0.1-0.1,0.1-0.1c0,0,0.1-0.1,0.1-0.1c0,0,0,0.1,0,0.1c0,0.1,0,0.1,0.2,0.1
		C175.4,31.8,175.5,31.8,175.5,31.9z"/>
</g>
<rect x="-0.1" class="st0" width="185.8" height="54.3"/>
</svg>
